<svg width="50" height="50" viewBox="0 0 50 50" fill="none" xmlns="http://www.w3.org/2000/svg">
<path d="M31.83 12.3536C26.6916 7.21516 18.3369 7.21516 13.1985 12.3536C8.07968 17.5116 8.07968 25.8467 13.1985 30.9851C17.6504 35.4371 24.5147 36.0255 29.6139 32.7502L35.9486 39.085C37.0273 40.1636 38.7531 40.1636 39.8318 39.085C40.9105 38.0063 40.9105 36.2804 39.8318 35.2017L33.5363 28.9062C36.89 23.7875 36.3212 16.8447 31.8496 12.3732L31.83 12.3536ZM16.4933 27.7099C13.1592 24.3758 13.1592 18.9825 16.4933 15.6484C19.8274 12.3143 25.2403 12.3143 28.5548 15.6484C31.8889 18.9825 31.8889 24.3954 28.5548 27.7099C25.2207 31.044 19.8274 31.0244 16.4933 27.7099Z" fill="white" fill-opacity="0.3"/>
</svg>
